<!-- icon666.com - MILLIONS vector ICONS FREE --><svg version="1.1" id="Capa_1" xmlns="http://www.w3.org/2000/svg" xmlns:xlink="http://www.w3.org/1999/xlink" x="0px" y="0px" viewBox="0 0 512 512" style="enable-background:new 0 0 512 512;" xml:space="preserve"><g><g><g><path d="M458.667,373.333c-8.473,0.128-16.218-4.77-19.733-12.48c20.361-18.627,31.482-45.279,30.4-72.853 c0-35.346-28.654-64-64-64c-35.346,0-64,28.654-64,64c-1.177,27.685,9.952,54.473,30.4,73.173 c-3.61,7.585-11.335,12.345-19.733,12.16c-29.455,0-53.333,23.878-53.333,53.333v74.667c0,5.891,4.776,10.667,10.667,10.667h192 c5.891,0,10.667-4.776,10.667-10.667v-74.667C512,397.211,488.122,373.333,458.667,373.333z M362.667,288 c0-23.564,19.102-42.667,42.667-42.667C428.898,245.333,448,264.436,448,288c0,35.413-19.093,64-42.667,64 C381.76,352,362.667,323.093,362.667,288z M490.667,490.667h-21.333v-53.333H448v53.333h-85.333v-53.333h-21.333v53.333H320v-64 c0-17.673,14.327-32,32-32c16.359,0.216,31.4-8.942,38.72-23.573c9.547,3.005,19.786,3.005,29.333,0 c7.303,14.596,22.293,23.748,38.613,23.573c17.673,0,32,14.327,32,32V490.667z"></path><path d="M213.333,277.333v-74.667c0-29.455-23.878-53.333-53.333-53.333c-8.473,0.128-16.218-4.77-19.733-12.48 c20.361-18.627,31.482-45.278,30.4-72.853c0-35.346-28.654-64-64-64c-35.346,0-64,28.654-64,64 c-1.177,27.685,9.952,54.473,30.4,73.173c-3.61,7.585-11.335,12.345-19.733,12.16C23.878,149.333,0,173.211,0,202.667v74.667 C0,283.224,4.776,288,10.667,288h192C208.558,288,213.333,283.224,213.333,277.333z M64,64c0-23.564,19.103-42.667,42.667-42.667 S149.333,40.436,149.333,64c0,35.413-19.093,64-42.667,64C83.093,128,64,99.093,64,64z M192,266.667h-21.333v-53.333h-21.333 v53.333H64v-53.333H42.667v53.333H21.333v-64c0-17.673,14.327-32,32-32c16.359,0.216,31.4-8.942,38.72-23.573 c9.547,3.005,19.786,3.005,29.333,0c7.303,14.596,22.293,23.748,38.613,23.573c17.673,0,32,14.327,32,32V266.667z"></path><path d="M501.333,0h-256c-5.891,0-10.667,4.776-10.667,10.667v128c0,5.891,4.776,10.667,10.667,10.667h21.333v32 c-0.034,5.891,4.714,10.694,10.604,10.729c2.866,0.017,5.618-1.12,7.636-3.155l39.467-39.573h176.96 c5.891,0,10.667-4.776,10.667-10.667v-128C512,4.776,507.224,0,501.333,0z M490.667,128H320c-2.835-0.016-5.56,1.097-7.573,3.093 L288,155.627v-16.96c0-5.891-4.776-10.667-10.667-10.667H256V21.333h234.667V128z"></path><rect x="288" y="64" width="21.333" height="21.333"></rect><rect x="330.667" y="64" width="21.333" height="21.333"></rect><rect x="373.333" y="64" width="96" height="21.333"></rect><path d="M256,373.333c0-5.891-4.776-10.667-10.667-10.667h-27.627l13.76-13.76l-15.04-15.04L192,358.293l-24.427-24.427 l-15.04,15.04l13.76,13.76h-27.627c-5.891,0-10.667,4.776-10.667,10.667V448H96c-17.673,0-32-14.327-32-32v-70.293l13.76,13.76 l15.04-15.04l-32-32c-4.16-4.136-10.88-4.136-15.04,0l-32,32l15.04,15.04l13.867-13.76V416c0,29.455,23.878,53.333,53.333,53.333 h181.333V448H256V373.333z M234.667,448h-85.333v-64h53.333v21.333H224V384h10.667V448z"></path></g></g></g></svg>