<!-- icon666.com - MILLIONS vector ICONS FREE --><svg version="1.1" id="Capa_1" xmlns="http://www.w3.org/2000/svg" xmlns:xlink="http://www.w3.org/1999/xlink" x="0px" y="0px" viewBox="0 0 512 512" style="enable-background:new 0 0 512 512;" xml:space="preserve"><g><g><g><path d="M507.11,219.794c-6.354-6.097-16.433-5.891-22.522,0.443l-51.132,53.183H78.543l-51.132-53.183 c-6.093-6.339-16.18-6.54-22.522-0.443c-6.342,6.097-6.54,16.184-0.443,22.522l51.387,53.448v199.329 c0,8.8,7.132,15.928,15.927,15.928h371.252c8.796,0,15.928-7.128,15.928-15.928V292.878l48.614-50.562 C513.65,235.977,513.453,225.891,507.11,219.794z M339.671,479.166H87.687V305.275h251.984V479.166z M427.084,479.166h-55.559 V305.275h55.559V479.166z"></path><path d="M255.192,208.035c57.087,0,103.528-46.44,103.528-103.528c0-57.083-46.441-103.527-103.528-103.527 S151.665,47.423,151.665,104.507C151.665,161.594,198.105,208.035,255.192,208.035z M255.192,32.834 c39.519,0,71.673,32.154,71.673,71.673c0,39.523-32.154,71.673-71.673,71.673s-71.673-32.15-71.673-71.673 C183.519,64.988,215.673,32.834,255.192,32.834z"></path><path d="M422.644,197.307c-2.228,2.228-3.504,5.257-3.504,8.442s1.275,6.292,3.504,8.442c2.232,2.228,5.257,3.504,8.442,3.504 c3.107,0,6.214-1.275,8.442-3.504c2.228-2.228,3.504-5.257,3.504-8.442c0-3.107-1.275-6.214-3.504-8.442 C435.067,192.846,427.104,192.846,422.644,197.307z"></path><path d="M71.763,188.627c3.107,0,6.214-1.275,8.442-3.504c2.232-2.232,3.504-5.335,3.504-8.442c0-3.185-1.272-6.292-3.504-8.442 c-4.46-4.46-12.424-4.46-16.884,0c-2.228,2.15-3.504,5.257-3.504,8.442c0,3.107,1.275,6.21,3.504,8.442 C65.553,187.351,68.578,188.627,71.763,188.627z"></path><path d="M122.322,222.531c1.555,1.555,3.593,2.333,5.631,2.333s4.075-0.778,5.631-2.333l6.315-6.315l6.315,6.315 c1.555,1.555,3.593,2.333,5.631,2.333s4.075-0.778,5.631-2.333c3.111-3.111,3.111-8.154,0-11.261l-6.315-6.315l6.315-6.315 c3.111-3.111,3.111-8.154,0-11.265c-3.111-3.107-8.15-3.107-11.261,0l-6.317,6.319l-6.313-6.315 c-3.111-3.111-8.15-3.111-11.261,0c-3.111,3.111-3.111,8.15,0,11.261l6.313,6.315l-6.313,6.311 C119.211,214.377,119.211,219.42,122.322,222.531z"></path><path d="M66.129,98.122c1.555,1.555,3.593,2.333,5.631,2.333s4.075-0.778,5.631-2.333l6.313-6.315l6.317,6.319 c1.555,1.555,3.593,2.333,5.631,2.333s4.075-0.778,5.631-2.333c3.111-3.111,3.111-8.154,0-11.265l-6.317-6.315l6.313-6.315 c3.111-3.107,3.111-8.15,0-11.261c-3.111-3.107-8.15-3.111-11.261,0l-6.313,6.315l-6.313-6.311c-3.111-3.111-8.15-3.111-11.261,0 c-3.111,3.111-3.111,8.154,0,11.261l6.313,6.315l-6.313,6.311C63.018,89.971,63.018,95.015,66.129,98.122z"></path><path d="M421.454,114.049c1.555,1.555,3.593,2.333,5.631,2.333s4.075-0.778,5.631-2.333l10.297-10.293l10.297,10.297 c1.555,1.556,3.593,2.333,5.631,2.333s4.075-0.778,5.631-2.333c3.111-3.111,3.111-8.154,0-11.261l-10.297-10.297l10.297-10.297 c3.111-3.111,3.111-8.154,0-11.265c-3.111-3.107-8.15-3.107-11.261,0L443.012,81.23l-10.293-10.293 c-3.111-3.111-8.15-3.107-11.261,0c-3.111,3.111-3.111,8.154,0,11.261l10.293,10.293l-10.297,10.297 C418.343,105.899,418.343,110.938,421.454,114.049z"></path><path d="M249.042,256.82c1.555,1.551,3.593,2.329,5.63,2.329c2.038,0,4.075-0.778,5.631-2.329l2.333-2.333l2.333,2.333 c1.555,1.555,3.593,2.333,5.631,2.333s4.075-0.778,5.631-2.333c3.111-3.111,3.111-8.154,0-11.265l-2.333-2.333l2.333-2.329 c3.11-3.111,3.11-8.154-0.001-11.265c-3.111-3.107-8.15-3.107-11.261,0l-2.335,2.333l-2.331-2.329 c-3.111-3.111-8.15-3.111-11.261,0c-3.111,3.111-3.111,8.15,0,11.261l2.331,2.333l-2.331,2.329 C245.931,248.666,245.931,253.709,249.042,256.82z"></path><path d="M349.968,171.02c-3.111,3.111-3.111,8.15,0,11.261l2.331,2.333l-2.331,2.329c-3.111,3.111-3.111,8.154,0,11.261 c1.556,1.555,3.593,2.333,5.631,2.333s4.075-0.778,5.631-2.329l2.331-2.333l2.335,2.333c1.556,1.555,3.593,2.333,5.631,2.333 s4.075-0.778,5.631-2.333c3.111-3.111,3.111-8.15,0-11.261l-2.333-2.333l2.333-2.333c3.111-3.111,3.111-8.154,0-11.261 c-3.111-3.111-8.15-3.111-11.261-0.004l-2.333,2.337l-2.333-2.333C358.118,167.909,353.078,167.909,349.968,171.02z"></path></g></g></g></svg>