<!-- icon666.com - MILLIONS vector ICONS FREE --><svg viewBox="0 0 512 512" xmlns="http://www.w3.org/2000/svg"><path d="m504.5 256c0 137.242188-111.257812 248.5-248.5 248.5s-248.5-111.257812-248.5-248.5 111.257812-248.5 248.5-248.5 248.5 111.257812 248.5 248.5zm0 0" fill="#ffbe73" style="fill: rgb(209, 197, 184);"></path><path d="m233.691406 376.953125c140.65625-17.582031 162.855469-96.710937 162.855469-96.710937s-221.007813-61.214844-221.203125-61.214844c-74.242188-73.613282-13.886719-192.0625-13.339844-193.132813-90.628906 37.066407-154.503906 126.132813-154.503906 230.105469 0 83.796875 41.480469 157.910156 105.023438 202.921875 11.28125-32.457031 41.546874-72.015625 121.167968-81.96875zm0 0" fill="#ffa93f" style="fill: rgb(113, 112, 111);"></path><path d="m368.640625 292.972656h-225.28125c-20.421875 0-36.976563-16.550781-36.976563-36.972656s16.554688-36.972656 36.976563-36.972656h225.28125c20.421875 0 36.976563 16.550781 36.976563 36.972656s-16.554688 36.972656-36.976563 36.972656zm0 0" fill="#fffcdc"></path><path d="m256 512c-68.378906 0-132.667969-26.628906-181.019531-74.980469-48.351563-48.351562-74.980469-112.640625-74.980469-181.019531s26.628906-132.667969 74.980469-181.019531c48.351562-48.351563 112.640625-74.980469 181.019531-74.980469 53.871094 0 105.40625 16.539062 149.039062 47.835938 3.367188 2.410156 4.140626 7.097656 1.726563 10.464843-2.417969 3.363281-7.101563 4.136719-10.46875 1.722657-41.066406-29.453126-89.582031-45.023438-140.296875-45.023438-64.375 0-124.894531 25.066406-170.414062 70.585938-45.519532 45.519531-70.585938 106.039062-70.585938 170.414062s25.066406 124.894531 70.585938 170.414062c45.519531 45.519532 106.039062 70.585938 170.414062 70.585938s124.894531-25.066406 170.414062-70.585938c45.519532-45.519531 70.585938-106.039062 70.585938-170.414062 0-34.207031-7.015625-67.253906-20.855469-98.222656-13.371093-29.921875-32.410156-56.425782-56.578125-78.773438-3.042968-2.8125-3.226562-7.558594-.417968-10.601562 2.8125-3.039063 7.558593-3.226563 10.601562-.414063 25.667969 23.734375 45.882812 51.882813 60.089844 83.667969 14.703125 32.910156 22.160156 68.015625 22.160156 104.34375 0 68.378906-26.628906 132.667969-74.980469 181.019531-48.351562 48.351563-112.640625 74.980469-181.019531 74.980469zm0 0" fill="#000000"></path><path d="m368.640625 300.472656h-168.859375c-4.140625 0-7.5-3.355468-7.5-7.5 0-4.140625 3.359375-7.5 7.5-7.5h168.859375c16.253906 0 29.476563-13.21875 29.476563-29.472656s-13.222657-29.472656-29.476563-29.472656h-225.28125c-16.253906 0-29.476563 13.21875-29.476563 29.472656s13.222657 29.472656 29.476563 29.472656h23.234375c4.140625 0 7.5 3.359375 7.5 7.5 0 4.144532-3.359375 7.5-7.5 7.5h-23.234375c-24.523437 0-44.476563-19.949218-44.476563-44.472656s19.953126-44.472656 44.476563-44.472656h225.28125c24.523437 0 44.476563 19.949218 44.476563 44.472656s-19.953126 44.472656-44.476563 44.472656zm0 0" fill="#000000"></path></svg>